<svg id="Layer_1" data-name="Layer 1" xmlns="http://www.w3.org/2000/svg" viewBox="0 0 202.34 231.8"><title>Artboard 1</title><path d="M119.49,33.3h0a6.37,6.37,0,0,0-3.38.54c-9.28,3.86-13.36,14.72-16.06,21.9-1.72,4.58-3.4,8.55-5.13,12.14-1,2-2,4-3.11,5.95-.15.27-.33.56-.52.86a17.46,17.46,0,0,0-1.21,2.19,2.09,2.09,0,0,0,.52,2.38,2.12,2.12,0,0,0,1.39.5,3.15,3.15,0,0,0,1.62-.5,18.91,18.91,0,0,0,3.54-2.95c3.39-3.39,5.31-8.31,7-12.65.74-1.9,1.44-3.69,2.21-5.24.6-1.22,1.15-2.42,1.69-3.59a41.2,41.2,0,0,1,5.38-9.42,56.58,56.58,0,0,1,5.3-5.65c.15-.14.36-.3.58-.47,1.08-.84,3.31-2.6,2-4.72a2.67,2.67,0,0,0-1.86-1.25"/><path d="M139.5,42.89c-.7,2.28-1.65,4.65-2.15,6.15-1,3-3.88,7.55-3.8,12a11.55,11.55,0,0,0,7.65,10.79c9.3,3.64,29.52-1.84,29.12-32.25C170,17.75,154.67,0,124.58,0,98,0,68.32,24.5,57.15,50.84a70,70,0,0,0-5.87,32.28c1.57,23.45,16.21,40.93,46.37,42,9.84.34,21.17-3.08,30.51-7.86l.77-.39,1.48-.81,1.25-.71c.65-.38,1.28-.77,1.91-1.16l.35-.22a52.13,52.13,0,0,0,7-5.24l.19-.16.59-.55a52.2,52.2,0,0,0,9-10.56c.22-.35.93-1.8,1.05-2.07a6.13,6.13,0,0,0,.68-2.18,4.91,4.91,0,0,0-.86-3,3.81,3.81,0,0,0-5.39-1.2c-3.17,2.17-6,5.2-10.85,5.83-.2,0-.38.05-.58.07h0l-.34,0c-.42,0-.84,0-1.25,0l-.45,0-.78-.06c-.34,0-.67-.07-1-.12l-.33-.06-.92-.19c-6-1.48-9.42-6.52-9.42-12.66,0-1,0-2.63-.06-4.13,0-.39-.06-.55-.4-.69-.7-.3-1.17,1-1.38,1.4-4.73,9-15.84,18.35-27.86,17.59-9.89-.63-16-10.61-16-21.15a59.22,59.22,0,0,1,5.22-24.15c6.76-15.39,21.18-28.5,32.11-31.57,1.19-.36,2.7-.7,4.15-1a31.54,31.54,0,0,1,5.21-.71c14.16-.73,17.82,8.66,19.12,15.29a28.11,28.11,0,0,1,0,5.52,34.09,34.09,0,0,1-.85,4.69"/><path d="M19.28,157.42a16.65,16.65,0,0,0,0,33.29A18,18,0,0,0,31,186.25a.5.5,0,0,0,.07-.71l-3.19-3.87a.5.5,0,0,0-.71-.07,12.25,12.25,0,0,1-7.73,2.91,10.46,10.46,0,0,1,0-20.9,12.28,12.28,0,0,1,7.76,3,.5.5,0,0,0,.7-.06l3.32-3.87a.5.5,0,0,0-.06-.72,18.34,18.34,0,0,0-11.89-4.58"/><path d="M74.4,174a16.71,16.71,0,1,0-16.71,16.67A16.69,16.69,0,0,0,74.4,174m-6.62,0a10.09,10.09,0,1,1-10.09-10.43A10.18,10.18,0,0,1,67.78,174"/><path d="M102.58,176.25v-4.89a.5.5,0,0,0-.5-.5h-10v-7h12.09a.5.5,0,0,0,.5-.5v-4.85a.5.5,0,0,0-.5-.5H86.3a.5.5,0,0,0-.5.5v31.14a.5.5,0,0,0,.5.5h5.32a.5.5,0,0,0,.5-.5v-12.9h10a.5.5,0,0,0,.5-.5"/><path d="M133.45,176.25v-4.89a.5.5,0,0,0-.5-.5H123v-7h12.09a.5.5,0,0,0,.5-.5v-4.85a.5.5,0,0,0-.5-.5H117.16a.5.5,0,0,0-.5.5v31.14a.5.5,0,0,0,.5.5h5.32a.5.5,0,0,0,.5-.5v-12.9h10a.5.5,0,0,0,.5-.5"/><path d="M148.66,190.15h18.63a.5.5,0,0,0,.5-.5v-4.89a.5.5,0,0,0-.5-.5H154.48v-7.59h11.37a.5.5,0,0,0,.5-.5v-4.81a.5.5,0,0,0-.5-.5H154.48v-7h12.81a.5.5,0,0,0,.5-.5v-4.85a.5.5,0,0,0-.5-.5H148.66a.5.5,0,0,0-.5.5v31.14a.5.5,0,0,0,.5.5"/><path d="M199.59,189.65v-4.89a.5.5,0,0,0-.5-.5H186.27v-7.59h11.37a.5.5,0,0,0,.5-.5v-4.81a.5.5,0,0,0-.5-.5H186.27v-7h12.81a.5.5,0,0,0,.5-.5v-4.85a.5.5,0,0,0-.5-.5H180.45a.5.5,0,0,0-.5.5v31.14a.5.5,0,0,0,.5.5h18.63a.5.5,0,0,0,.5-.5"/><path d="M12.44,204.25A.5.5,0,0,0,12,204h0a.5.5,0,0,0-.46.3L0,230.64a.5.5,0,0,0,.46.7H5.16a.5.5,0,0,0,.47-.32l1.85-4.74h8.89L18.23,231a.5.5,0,0,0,.47.32h4.7a.5.5,0,0,0,.46-.7Zm2.24,17.68H9.22L12,215Z"/><path d="M43.3,204.48H34.15a.5.5,0,0,0-.5.5v25.86a.5.5,0,0,0,.5.5H43.3c7.25,0,12.73-5.77,12.73-13.43s-5.47-13.43-12.73-13.43m7.06,13.43c0,4.77-3.37,8.37-7.84,8.37H39.06V209.51h3.46c5.09,0,7.84,4.33,7.84,8.4"/><path d="M76.59,204.48H67.44a.5.5,0,0,0-.5.5v25.86a.5.5,0,0,0,.5.5h9.15c7.25,0,12.73-5.77,12.73-13.43s-5.47-13.43-12.73-13.43m7.06,13.43c0,4.77-3.37,8.37-7.84,8.37H72.36V209.51h3.46c5.09,0,7.84,4.33,7.84,8.4"/><path d="M119.17,226.33a4.83,4.83,0,0,1-1.12.13c-1.49,0-2.42-1.73-3.4-3.56a15.21,15.21,0,0,0-2-3.09,7.36,7.36,0,0,0,6.23-7.48c0-4.77-3.36-7.85-8.56-7.85h-9.4a.5.5,0,0,0-.5.5v25.86a.5.5,0,0,0,.5.5h4.31a.5.5,0,0,0,.5-.5V220.78h.35c1.77,0,2.81,2,4,4.35,1.56,3,3.32,6.43,7.33,6.43a6.26,6.26,0,0,0,2-.3.5.5,0,0,0,.34-.48v-4a.5.5,0,0,0-.19-.39.51.51,0,0,0-.43-.1m-5.69-13.75c0,2.28-1.47,3.39-4.48,3.39h-3.25V209.4h4c2.39,0,3.7,1.13,3.7,3.18"/><path d="M146.89,204.48H131.42a.5.5,0,0,0-.5.5v25.86a.5.5,0,0,0,.5.5h15.48a.5.5,0,0,0,.5-.5v-4.06a.5.5,0,0,0-.5-.5H136.34v-6.14h9.36a.5.5,0,0,0,.5-.5v-4a.5.5,0,0,0-.5-.5h-9.36v-5.64h10.56a.5.5,0,0,0,.5-.5v-4a.5.5,0,0,0-.5-.5"/><path d="M168.6,215.49c-2.25-1.09-4.2-2-4.2-3.86,0-1.59,1.44-2.75,3.42-2.75a7.56,7.56,0,0,1,4.17,1.47.49.49,0,0,0,.39.07.5.5,0,0,0,.32-.22l2-3.18a.5.5,0,0,0-.13-.67,12.3,12.3,0,0,0-7.08-2.35c-4.92,0-8.63,3.36-8.63,7.81,0,4.64,3.61,6.39,6.52,7.79,2.26,1.09,4.22,2,4.22,4s-1.59,3.17-3.77,3.17a8.49,8.49,0,0,1-5.23-2.12.48.48,0,0,0-.38-.11.5.5,0,0,0-.34.2l-2.23,3.11a.5.5,0,0,0,.08.67,12.4,12.4,0,0,0,8.35,3.3c5.39,0,9.3-3.46,9.3-8.24s-3.75-6.61-6.76-8.08"/><path d="M195.58,215.49c-2.25-1.09-4.19-2-4.19-3.86,0-1.59,1.44-2.75,3.42-2.75a7.57,7.57,0,0,1,4.17,1.47.49.49,0,0,0,.39.07.5.5,0,0,0,.32-.22l2-3.18a.5.5,0,0,0-.13-.67,12.29,12.29,0,0,0-7.08-2.35c-4.92,0-8.63,3.36-8.63,7.81,0,4.64,3.61,6.39,6.52,7.79,2.26,1.09,4.22,2,4.22,4s-1.59,3.17-3.77,3.17a8.49,8.49,0,0,1-5.23-2.12.48.48,0,0,0-.38-.11.5.5,0,0,0-.34.2l-2.23,3.11a.5.5,0,0,0,.08.67,12.4,12.4,0,0,0,8.35,3.3c5.39,0,9.3-3.46,9.3-8.24s-3.75-6.61-6.76-8.08"/></svg>